# xmcd
#
# Track frame offsets: 
#        150
#        21119
#        34964
#        50351
#        70536
#        97020
#        117658
#        138860
#        166308
#        189322
#        225418
#        259509
#
# Disc length: 4568 seconds
#
# Revision: 0
# Processed by: cddbd v1.5.2PL0 Copyright (c) Steve Scherf et al.
# Submitted via: ExactAudioCopy v1.3
#
DISCID=9811d60c
DTITLE=Angel Forrest - Angel Sings Janis 'Live'
DYEAR=1997
DGENRE=Blues Rock
TTITLE0=Move Over
TTITLE1=Down On Me
TTITLE2=Get It While You Can
TTITLE3=Piece Of My Heart
TTITLE4=Me And Bobby McGee
TTITLE5=Cry Baby
TTITLE6=Mercedez
TTITLE7=Summertime
TTITLE8=Half Moon
TTITLE9=As Good As You've Been
TTITLE10=Try
TTITLE11=Ball and Chain
EXTD=
EXTT0=
EXTT1=
EXTT2=
EXTT3=
EXTT4=
EXTT5=
EXTT6=
EXTT7=
EXTT8=
EXTT9=
EXTT10=
EXTT11=
PLAYORDER=
